:SAMPLES-PER-SECOND 30
:FULLY-SPECIFIED
:DEGREES
298
root  -30.874 28.016 -6.87748 62.6882 89.1902 178.884
RightUpLeg  71.2155 37.7588 -36.8948
RightLeg  63.0629 13.1374 25.6459
RightFoot  -21.9618 -0.439054 -3.11871
RightToes  3.49245e-010 0 -3.6325e-017
Spine  -37.2502 -34.0052 79.7274
Spine1  130.205 43.4276 -71.8877
HEad  -27.1251 -2.06295 -2.55773
LeftShoulder1  -0.235441 1.00214 20.4036
LeftArm  -92.2762 -41.3022 3.28511
LeftForeArm  -19.9408 -47.6149 -13.5739
LeftHand  -0.350463 11.3066 -5.41817
RightShoulder  -0.0262131 -3.27147 -26.334
RightArm  -81.5859 21.9011 -3.81508
RightForeArm  -38.039 50.6716 16.005
RightHand  -0.448941 9.56025 -3.8758
LeftUpLeg  100.288 -13.7909 15.2879
LeftLeg  67.6247 -2.66447 -6.28085
LeftFoot  -41.174 0.440155 0.712324
LeftToes  -5.36635e-011 -6.70219e-011 5.24975e-011
299
root  -30.1364 27.675 -6.93244 62.7919 88.6258 -179.767
RightUpLeg  73.5958 39.4446 -34.8118
RightLeg  64.1633 12.1045 24.9659
RightFoot  -23.1596 -0.530556 -3.61159
RightToes  3.49245e-010 0 -3.6325e-017
Spine  -34.7661 -33.8358 75.8984
Spine1  134.065 41.2571 -66.6933
HEad  -28.2037 -3.02908 -2.00636
LeftShoulder1  -0.249884 0.970814 20.9169
LeftArm  -92.4681 -42.1041 3.20084
LeftForeArm  -19.045 -47.2832 -13.3704
LeftHand  -0.353594 11.0699 -5.72357
RightShoulder  -0.0163591 -3.31966 -25.3359
RightArm  -80.2126 21.7318 -3.58363
RightForeArm  -38.9877 51.3309 16.4104
RightHand  -0.521349 10.1481 -4.28497
LeftUpLeg  102.325 -15.1845 15.6993
LeftLeg  68.4772 -2.587 -6.36064
LeftFoot  -41.9602 0.303788 0.178808
LeftToes  -5.36635e-011 -6.70219e-011 5.24975e-011
300
root  -29.2806 27.3907 -6.94112 46.9215 88.2453 164.878
RightUpLeg  75.2391 41.1337 -33.215
RightLeg  65.2721 11.4011 24.8012
RightFoot  -24.3565 -0.589146 -3.72409
RightToes  3.49245e-010 0 -3.6325e-017
Spine  -30.949 -34.6956 72.3673
Spine1  134.377 38.6103 -63.3227
HEad  -29.1455 -3.46197 -1.86818
LeftShoulder1  -0.2503 0.840333 20.3916
LeftArm  -92.2724 -42.9595 4.28185
LeftForeArm  -19.9334 -46.6033 -13.1122
LeftHand  -0.346665 11.227 -5.422
RightShoulder  -0.127413 -2.48098 -24.6808
RightArm  -78.9055 21.4914 -3.7684
RightForeArm  -39.5614 50.9767 16.2322
RightHand  -0.581171 11.1507 -4.49119
LeftUpLeg  104.341 -15.5479 15.4953
LeftLeg  68.9294 -2.51275 -6.3173
LeftFoot  -42.5322 0.0181207 -0.866968
LeftToes  -5.36635e-011 -6.70219e-011 5.24975e-011
301
root  -28.3587 27.2209 -6.73264 36.1847 88.1673 153.73
RightUpLeg  76.9009 41.7454 -31.6477
RightLeg  66.0691 10.7165 24.3121
RightFoot  -26.0724 -0.643339 -3.60214
RightToes  3.49245e-010 0 -3.6325e-017
Spine  -26.9227 -35.0617 68.4556
Spine1  134.037 35.7854 -59.9103
HEad  -30.5805 -2.87705 -2.20713
LeftShoulder1  -0.279047 0.51052 20.2986
LeftArm  -92.1062 -43.3181 4.81964
LeftForeArm  -19.3682 -45.8196 -12.7375
LeftHand  -0.4089 11.3247 -6.47874
RightShoulder  -0.173233 -2.1007 -24.341
RightArm  -77.9555 21.9936 -3.72804
RightForeArm  -39.8893 50.2946 15.8695
RightHand  -0.493432 11.5683 -3.79309
LeftUpLeg  105.496 -17.3883 15.9744
LeftLeg  69.0525 -3.20308 -8.34244
LeftFoot  -42.6121 -0.020506 -1.00105
LeftToes  -5.36635e-011 -6.70219e-011 5.24975e-011
302
root  -27.4175 27.0968 -6.53519 49.6989 87.1701 165.625
RightUpLeg  76.2654 42.5015 -33.6888
RightLeg  66.7937 10.4627 24.5736
RightFoot  -27.354 -0.712511 -3.7492
RightToes  3.49245e-010 0 -3.6325e-017
Spine  -21.3503 -36.7871 64.2537
Spine1  129.859 32.6212 -58.152
HEad  -31.404 -3.18375 -2.05642
LeftShoulder1  -0.316505 0.206222 20.6215
LeftArm  -92.0677 -44.0615 4.89338
LeftForeArm  -19.2272 -44.8517 -12.32
LeftHand  -0.454674 11.508 -7.09785
RightShoulder  -0.176223 -2.02952 -23.8617
RightArm  -77.3382 22.281 -4.34924
RightForeArm  -40.6589 49.2321 15.3326
RightHand  -0.548865 11.0056 -4.29019
LeftUpLeg  105.509 -17.9726 15.2438
LeftLeg  69.4029 -3.59427 -9.63105
LeftFoot  -42.6378 -0.25439 -1.83675
LeftToes  -5.36635e-011 -6.70219e-011 5.24975e-011
303
root  -26.7481 27.0958 -6.38072 49.4377 87.3151 163.286
RightUpLeg  75.3624 41.6286 -34.2324
RightLeg  67.3434 9.58832 23.3122
RightFoot  -28.2051 -0.65819 -3.14995
RightToes  3.49245e-010 0 -3.6325e-017
Spine  -17.7654 -38.7341 64.1796
Spine1  123.363 30.0401 -59.7997
HEad  -31.6843 -3.17017 -1.97494
LeftShoulder1  -0.372326 -0.416904 20.5034
LeftArm  -90.9647 -44.4548 5.23968
LeftForeArm  -20.3955 -43.7797 -11.9472
LeftHand  -0.406005 11.8843 -5.86386
RightShoulder  -0.167328 -2.08362 -23.7079
RightArm  -76.5702 22.8875 -4.98129
RightForeArm  -41.2523 48.2817 14.8734
RightHand  -0.517374 11.149 -4.03884
LeftUpLeg  104.67 -18.2098 15.1929
LeftLeg  69.6009 -3.90499 -10.6311
LeftFoot  -41.9728 -0.572278 -3.0252
LeftToes  -5.36635e-011 -6.70219e-011 5.24975e-011
304
root  -25.9991 27.273 -6.14353 57.634 87.2682 168.743
RightUpLeg  74.3673 40.3749 -35.5753
RightLeg  67.3598 9.26893 22.6173
RightFoot  -28.5015 -0.518677 -2.1535
RightToes  3.49245e-010 0 -3.6325e-017
Spine  -13.3576 -40.0498 61.4359
Spine1  118.037 26.8368 -59.4356
HEad  -32.202 -2.57164 -2.34897
LeftShoulder1  -0.383631 -0.62922 20.2631
LeftArm  -90.3874 -44.7517 5.86836
LeftForeArm  -21.5408 -42.477 -11.4998
LeftHand  -0.420917 12.7804 -5.27327
RightShoulder  -0.0975834 -2.66167 -23.8148
RightArm  -76.3284 23.5017 -6.07518
RightForeArm  -41.3046 47.1794 14.345
RightHand  -0.475445 10.7171 -3.83129
LeftUpLeg  103.464 -18.2175 14.4283
LeftLeg  69.2069 -4.39953 -11.7923
LeftFoot  -40.5808 -1.03319 -4.90651
LeftToes  -5.36635e-011 -6.70219e-011 5.24975e-011
